<svg width="133" height="133" viewBox="0 0 133 133" fill="none" xmlns="http://www.w3.org/2000/svg">
<g clip-path="url(#clip0_50_663)">
<path d="M89.795 1.94824H43.205C41.0004 1.94824 38.8861 2.82391 37.3273 4.38303L4.38303 37.3273C2.82417 38.8861 1.94824 41.0006 1.94824 43.205V89.7953C1.94824 91.9999 2.82391 94.1141 4.38303 95.673L37.3273 128.617C38.8861 130.176 41.0006 131.052 43.205 131.052H89.795C91.9996 131.052 94.1139 130.176 95.6727 128.617L128.617 95.673C130.176 94.1141 131.052 91.9996 131.052 89.7953V43.205C131.052 41.0004 130.176 38.8861 128.617 37.3273L95.673 4.38303C94.1139 2.82417 91.9996 1.94824 89.795 1.94824Z" fill="#F8F6F6"/>
<path d="M87.9247 12.6984H45.0753C44.5241 12.6984 43.9955 12.9174 43.6058 13.307L13.3068 43.6061C12.9171 43.9957 12.6981 44.5243 12.6981 45.0756V87.9249C12.6981 88.4762 12.9171 89.0045 13.3068 89.3944L43.6058 119.693C43.9955 120.083 44.5241 120.302 45.0753 120.302H87.9247C88.4759 120.302 89.0043 120.083 89.3942 119.693L119.693 89.3944C120.083 89.0048 120.302 88.4762 120.302 87.9249V45.0756C120.302 44.5243 120.083 43.9957 119.693 43.6061L89.3942 13.307C89.0043 12.9174 88.4759 12.6984 87.9247 12.6984Z" fill="#EA4F3D"/>
<path d="M48.8661 58.8328C50.2007 58.8328 51.4876 59.2255 52.5877 59.9687C53.4795 60.5708 54.6903 60.3365 55.2927 59.4448C55.8951 58.553 55.6605 57.342 54.7687 56.7398C53.0221 55.56 50.9811 54.9363 48.8661 54.9363C43.046 54.9363 38.311 59.6713 38.311 65.4913C38.311 71.3114 43.046 76.0466 48.8661 76.0466C54.3876 76.0466 58.2441 71.7062 58.2441 65.4913C58.2441 64.4151 57.3718 63.5431 56.2959 63.5431H51.1465C50.0706 63.5431 49.1983 64.4151 49.1983 65.4913C49.1983 66.5675 50.0706 67.4396 51.1465 67.4396H54.1505C53.6369 69.9011 52.0697 72.1502 48.8661 72.1502C45.1945 72.1502 42.2075 69.1631 42.2075 65.4913C42.2075 61.8198 45.1945 58.8328 48.8661 58.8328Z" fill="black"/>
<path d="M62.9547 65.4913C62.9547 71.3114 67.6897 76.0466 73.5098 76.0466C79.3298 76.0466 84.0648 71.3116 84.0648 65.4913C84.0648 59.6713 79.3298 54.9363 73.5098 54.9363C67.6897 54.9363 62.9547 59.6713 62.9547 65.4913ZM80.1683 65.4913C80.1683 69.1631 77.1813 72.1502 73.5098 72.1502C69.8382 72.1502 66.8512 69.1631 66.8512 65.4913C66.8512 61.8198 69.8382 58.8328 73.5098 58.8328C77.1813 58.8328 80.1683 61.8198 80.1683 65.4913Z" fill="black"/>
<path d="M90.7237 76.1157C91.8378 76.1157 92.741 75.2125 92.741 74.0984C92.741 72.9843 91.8378 72.0813 90.7237 72.0813C89.6095 72.0813 88.7063 72.9845 88.7063 74.0984C88.7063 75.2125 89.6095 76.1157 90.7237 76.1157Z" fill="black"/>
<path d="M90.7377 70.6331C91.8137 70.6331 92.6859 69.7611 92.6859 68.6849V56.8845C92.6859 55.8083 91.8137 54.9363 90.7377 54.9363C89.6618 54.9363 88.7895 55.8083 88.7895 56.8845V68.6849C88.7895 69.7611 89.6618 70.6331 90.7377 70.6331Z" fill="black"/>
<path d="M129.995 35.9495L97.0505 3.00523C95.1124 1.06738 92.5358 0 89.795 0H43.205C40.4642 0 37.8876 1.06738 35.9495 3.00523L14.6206 24.3343C13.8598 25.0954 13.8598 26.3288 14.6206 27.0897C15.3815 27.8503 16.6151 27.8503 17.3757 27.0897L38.7046 5.76082C39.9068 4.55863 41.5048 3.89648 43.2047 3.89648H89.7947C91.4946 3.89648 93.0927 4.55863 94.2949 5.76082L127.239 38.7046C128.441 39.907 129.103 41.5051 129.103 43.205V89.7953C129.103 91.4952 128.441 93.0932 127.239 94.2952L94.2952 127.239C93.0932 128.442 91.4949 129.104 89.795 129.104H43.205C41.5051 129.104 39.9068 128.442 38.7048 127.239L5.76056 94.2952C4.55837 93.0932 3.89648 91.4952 3.89648 89.7953V43.205C3.89648 41.5051 4.55837 39.907 5.76056 38.7048L10.9089 33.5565C11.6697 32.7954 11.6697 31.562 10.9089 30.8009C10.148 30.0403 8.91438 30.0403 8.15352 30.8009L3.00497 35.9495C1.06712 37.8879 0 40.4645 0 43.205V89.7953C0 92.536 1.06738 95.1127 3.00523 97.0508L35.9495 129.995C37.8873 131.933 40.464 133 43.205 133H89.795C92.5358 133 95.1127 131.933 97.0505 129.995L129.995 97.0508C131.933 95.1127 133 92.536 133 89.7953V43.205C133 40.4645 131.933 37.8879 129.995 35.9495Z" fill="black"/>
<path d="M10.7499 87.9249C10.7499 89.0006 11.1689 90.0116 11.9292 90.772L42.228 121.071C42.9886 121.831 43.9996 122.25 45.0753 122.25H87.9247C89.0004 122.25 90.0114 121.831 90.7717 121.071L121.071 90.772C121.831 90.0116 122.25 89.0006 122.25 87.9249V45.0753C122.25 43.9999 121.831 42.9891 121.071 42.228L90.7715 11.9292C90.0109 11.1689 88.9999 10.7501 87.9247 10.7501H45.0753C43.9999 10.7501 42.9889 11.1689 42.2283 11.9292L11.929 42.2283C11.1686 42.9891 10.7499 43.9999 10.7499 45.0753V87.9249ZM14.6464 45.0753C14.6464 45.0405 14.6599 45.0078 14.6843 44.9834L44.9831 14.6845C45.0078 14.6599 45.0405 14.6466 45.0753 14.6466H87.9247C87.9595 14.6466 87.992 14.6601 88.0166 14.6845L118.315 44.9834C118.34 45.008 118.354 45.0408 118.354 45.0756V87.9249C118.354 87.959 118.34 87.9925 118.315 88.0166L88.0164 118.316C87.992 118.34 87.9595 118.354 87.9247 118.354H45.0753C45.0408 118.354 45.008 118.34 44.9834 118.315L14.6843 88.0164C14.6604 87.9922 14.6464 87.9587 14.6464 87.9247V45.0753Z" fill="black"/>
</g>
<defs>
<clipPath id="clip0_50_663">
<rect width="133" height="133" fill="white"/>
</clipPath>
</defs>
</svg>